<svg xmlns="http://www.w3.org/2000/svg" viewBox="0 0 136.32 28.52"><title>Asset 2devfolio</title><path d="M34.29,5.49h7.4a11.56,11.56,0,0,1,5.2,1.08,7.65,7.65,0,0,1,3.34,3.13,9.71,9.71,0,0,1,1.16,4.86,9.86,9.86,0,0,1-1.15,4.89,7.58,7.58,0,0,1-3.33,3.13,11.63,11.63,0,0,1-5.22,1.08h-7.4Zm7.07,14.37a5.44,5.44,0,0,0,4-1.32,5.4,5.4,0,0,0,1.32-4,5.35,5.35,0,0,0-1.32-4,5.47,5.47,0,0,0-4-1.3H39V19.86Z"/><path d="M65.62,18.21H57.78a2.72,2.72,0,0,0,.9,1.78,3.18,3.18,0,0,0,2,.54,6.36,6.36,0,0,0,3.58-1.16l1.16,3a7.49,7.49,0,0,1-2.3,1.1,9.36,9.36,0,0,1-2.68.4,8.38,8.38,0,0,1-3.79-.8,5.73,5.73,0,0,1-2.46-2.3,6.89,6.89,0,0,1-.86-3.51,7.09,7.09,0,0,1,.81-3.42,5.85,5.85,0,0,1,2.27-2.35,6.47,6.47,0,0,1,3.29-.84A5.6,5.6,0,0,1,64,12.42a6.77,6.77,0,0,1,1.6,4.76ZM57.73,16h4q-.15-2.27-2-2.27T57.73,16Z"/><path d="M76.1,11h4.49L74.93,23.67H71.14L65.57,11h4.8l2.79,7.14Z"/><path d="M88.63,11h3v3.38h-3v9.31H84V14.36H81.67V11H84a5.3,5.3,0,0,1,1.74-4,8.11,8.11,0,0,1,4.84-1.53l1.57-.1.26,3.33-1.21.05a4.11,4.11,0,0,0-2,.44,1.53,1.53,0,0,0-.57,1.37Z"/><path d="M95.68,23.07a5.83,5.83,0,0,1-2.45-2.31,6.89,6.89,0,0,1-.86-3.51,6.82,6.82,0,0,1,.86-3.5,5.79,5.79,0,0,1,2.44-2.28,8.91,8.91,0,0,1,7.38,0,5.79,5.79,0,0,1,2.44,2.28,6.82,6.82,0,0,1,.86,3.5,6.89,6.89,0,0,1-.86,3.51A5.85,5.85,0,0,1,103,23.07a8.75,8.75,0,0,1-7.36,0Zm6.13-5.82q0-3.2-2.45-3.2t-2.45,3.2q0,3.2,2.45,3.2T101.81,17.25Z"/><path d="M108.44,23.67V5.49H113V23.67Z"/><path d="M115.58,4.64h4.8V8.79h-4.8Zm.1,19V11h4.59V23.67Z"/><path d="M125.66,23.07a5.83,5.83,0,0,1-2.45-2.31,6.89,6.89,0,0,1-.86-3.51,6.82,6.82,0,0,1,.86-3.5,5.79,5.79,0,0,1,2.44-2.28,8.91,8.91,0,0,1,7.38,0,5.79,5.79,0,0,1,2.44,2.28,6.82,6.82,0,0,1,.86,3.5,6.89,6.89,0,0,1-.86,3.51A5.85,5.85,0,0,1,133,23.07a8.75,8.75,0,0,1-7.36,0Zm6.13-5.82q0-3.2-2.45-3.2t-2.45,3.2q0,3.2,2.45,3.2T131.78,17.25Z"/><path d="M26,15.7A12.68,12.68,0,0,1,14.55,28.43s-8.22.21-10.94,0a2.84,2.84,0,0,1-2.28-1.72A3.48,3.48,0,0,0,2.54,27c.89.08,2.41.12,4.53.12,3.11,0,6.5-.09,6.53-.09h.06a13.35,13.35,0,0,0,8.81-4.39A14,14,0,0,0,26,14.92C26,15.18,26,15.44,26,15.7Z" style="fill:#211e26"/><path d="M25,12.91A12.68,12.68,0,0,1,13.53,25.63s-8.22.21-10.94,0A3.06,3.06,0,0,1,0,22.53L0,3.16A3.06,3.06,0,0,1,2.65.09c2.73-.23,10.94,0,10.94,0A12.68,12.68,0,0,1,25,12.91Z" style="fill:#211e26"/></svg>